<?xml version="1.0" standalone="no"?>
<!DOCTYPE svg PUBLIC "-//W3C//DTD SVG 20010904//EN"
 "http://www.w3.org/TR/2001/REC-SVG-20010904/DTD/svg10.dtd">
<svg version="1.0" xmlns="http://www.w3.org/2000/svg"
 width="348.000000pt" height="348.000000pt" viewBox="0 0 348.000000 348.000000"
 preserveAspectRatio="xMidYMid meet">
<metadata>
Created by potrace 1.11, written by Peter Selinger 2001-2013
</metadata>
<g transform="translate(0.000000,348.000000) scale(0.100000,-0.100000)"
fill="#000000" stroke="none">
<path d="M230 1739 c0 -956 3 -1739 8 -1739 4 0 27 12 52 26 25 14 63 36 85
48 80 45 221 129 247 147 15 11 30 19 33 19 4 0 45 23 93 51 48 29 107 63 132
77 25 13 50 28 55 32 6 4 27 17 48 29 43 24 61 35 222 128 66 39 145 84 175
102 30 17 62 35 70 41 8 5 60 34 115 66 55 31 108 64 119 73 10 9 19 14 20 12
0 -3 12 2 26 11 23 14 663 387 738 430 96 54 443 256 557 323 39 23 100 59
138 79 37 21 67 39 67 41 0 2 -19 14 -42 28 -24 13 -110 63 -193 112 -82 48
-168 97 -190 110 -22 12 -80 46 -130 75 -49 29 -162 94 -250 145 -88 51 -222
129 -299 174 -76 44 -141 81 -144 81 -3 0 -13 6 -21 14 -9 7 -41 27 -71 43
-30 17 -117 67 -194 112 -76 44 -140 81 -142 81 -2 0 -44 25 -94 55 -50 30
-93 55 -96 55 -3 0 -28 15 -57 33 -29 18 -59 36 -67 40 -8 4 -31 17 -50 28
-39 24 -506 296 -560 327 -19 11 -91 52 -160 92 -69 40 -151 88 -182 106 l-58
33 0 -1740z"/>
</g>
</svg>
